<svg id="Layer_2" data-name="Layer 2" xmlns="http://www.w3.org/2000/svg" viewBox="0 0 200 200"><defs><style>.cls-1{fill:#fff;}</style></defs><path class="cls-1" d="M106.71,57.17,99.75,41h-.07L92.6,57.17H83.71L95,34.75,84.09,13.35h9.59l6.56,14.56.07-.05,6.47-14.51h8.89L104.9,34l11.39,23.2Z"/><path class="cls-1" d="M106.71,119.07l-7-16.12h-.07L92.6,119.07H83.71L95,96.65,84.09,75.26h9.59l6.56,14.56.07-.06,6.47-14.5h8.89L104.9,95.87l11.39,23.2Z"/><path class="cls-1" d="M106.71,181l-7-16.12h-.07L92.6,181H83.71L95,158.56l-10.92-21.4h9.59l6.56,14.57.07-.06,6.47-14.51h8.89L104.9,157.78,116.29,181Z"/></svg>